# xmcd
#
# Track frame offsets:
#	150
#	25399
#	50679
#	68528
#	103243
#	125402
#	154011
#	175267
#	192171
#	214234
#	247188
#	274329
#	310443
#
# Disc length: 4438 seconds
#
# Revision: 0
# Processed by: cddbd v1.5.2PL0 Copyright (c) Steve Scherf et al.
# Submitted via: EasyCDDAExtractor 12.1.0.1
#
DISCID=c511540d
DTITLE=Various Artist - THE BEST OF MIAMI-VOL-03-1998/21/04/2010
DYEAR=1998
DGENRE=FREESTYLE
TTITLE0=MC SHY-D - I'VE GOT BE TOUGH (BY DJ GILMAR SINISTRO)
TTITLE1=FREESTYLE - THE PARTY'S JUST BEGUN (BY DJ GILMAR SINISTRO)
TTITLE2=REINALD-O. - FOREVER (BY DJ GILMAR SINISTRO)
TTITLE3=INFORMATION SOCIETY - RUNNING (BY DJ GILMAR SINISTRO)
TTITLE4=STEVIE B - DREAMIN' OF LOVE (BY DJ GILMAR SINISTRO)
TTITLE5=IN-DEX - NOW YOU'RE GONE (BY DJ GILMAR SINISTRO)
TTITLE6=SHAVONNE - SO, TELL ME ,TELL ME (BY DJ GILMAR SINISTRO)
TTITLE7=GUCCI CREW - SALLY THAT GIRL (BY DJ GILMAR SINISTRO)
TTITLE8=M4 SEARS - GET IT BOY (BY DJ GILMAR SINISTRO)
TTITLE9=NOEL - OUT OF TIME (BY DJ GILMAR SINISTRO)
TTITLE10=LIL JOHANNA - TAKE ME YOR ARMS AGAIN (BY DJ GILMAR SINISTRO)
TTITLE11=REINALD-O. - ANOTHER NIGHT (BY DJ GILMAR SINISTRO)
TTITLE12=B.V.S.M.P - I NEED YOU (BY DJ GILMAR SINISTRO)
EXTD=
EXTT0=
EXTT1=
EXTT2=
EXTT3=
EXTT4=
EXTT5=
EXTT6=
EXTT7=
EXTT8=
EXTT9=
EXTT10=
EXTT11=
EXTT12=
PLAYORDER=
